<mxfile host="Electron" modified="2023-11-14T12:48:27.644Z" agent="Mozilla/5.0 (Windows NT 10.0; Win64; x64) AppleWebKit/537.36 (KHTML, like Gecko) draw.io/21.6.8 Chrome/114.0.5735.289 Electron/25.5.0 Safari/537.36" etag="Eqokml-oNiob1ZYgwJMv" version="21.6.8" type="device" pages="4">
  <diagram name="MijnAansluting-GoEfficient_OrderIntake" id="arepOQXlxkM8_hnADU65">
    <mxGraphModel dx="1276" dy="606" grid="1" gridSize="6" guides="1" tooltips="1" connect="1" arrows="1" fold="1" page="1" pageScale="1" pageWidth="1654" pageHeight="1169" math="0" shadow="0">
      <root>
        <mxCell id="0" />
        <mxCell id="1" parent="0" />
        <mxCell id="h0R1vqVFpEEYxsVIjs-e-66" value="MijnAansluiting.nl" style="shape=umlLifeline;perimeter=lifelinePerimeter;whiteSpace=wrap;container=1;dropTarget=0;collapsible=0;recursiveResize=0;outlineConnect=0;portConstraint=eastwest;newEdgeStyle={&quot;edgeStyle&quot;:&quot;elbowEdgeStyle&quot;,&quot;elbow&quot;:&quot;vertical&quot;,&quot;curved&quot;:0,&quot;rounded&quot;:0};size=65;" parent="1" vertex="1">
          <mxGeometry x="115" y="122" width="150" height="1008" as="geometry" />
        </mxCell>
        <mxCell id="h0R1vqVFpEEYxsVIjs-e-67" value="LIPBroker" style="shape=umlLifeline;perimeter=lifelinePerimeter;whiteSpace=wrap;container=1;dropTarget=0;collapsible=0;recursiveResize=0;outlineConnect=0;portConstraint=eastwest;newEdgeStyle={&quot;edgeStyle&quot;:&quot;elbowEdgeStyle&quot;,&quot;elbow&quot;:&quot;vertical&quot;,&quot;curved&quot;:0,&quot;rounded&quot;:0};size=65;" parent="1" vertex="1">
          <mxGeometry x="508" y="122" width="150" height="1008" as="geometry" />
        </mxCell>
        <mxCell id="h0R1vqVFpEEYxsVIjs-e-68" value="P2ALinker" style="shape=umlLifeline;perimeter=lifelinePerimeter;whiteSpace=wrap;container=1;dropTarget=0;collapsible=0;recursiveResize=0;outlineConnect=0;portConstraint=eastwest;newEdgeStyle={&quot;edgeStyle&quot;:&quot;elbowEdgeStyle&quot;,&quot;elbow&quot;:&quot;vertical&quot;,&quot;curved&quot;:0,&quot;rounded&quot;:0};size=65;" parent="1" vertex="1">
          <mxGeometry x="708" y="122" width="150" height="1008" as="geometry" />
        </mxCell>
        <mxCell id="h0R1vqVFpEEYxsVIjs-e-69" value="GoEfficient" style="shape=umlLifeline;perimeter=lifelinePerimeter;whiteSpace=wrap;container=1;dropTarget=0;collapsible=0;recursiveResize=0;outlineConnect=0;portConstraint=eastwest;newEdgeStyle={&quot;edgeStyle&quot;:&quot;elbowEdgeStyle&quot;,&quot;elbow&quot;:&quot;vertical&quot;,&quot;curved&quot;:0,&quot;rounded&quot;:0};size=65;" parent="1" vertex="1">
          <mxGeometry x="908" y="122" width="150" height="1008" as="geometry" />
        </mxCell>
        <mxCell id="h0R1vqVFpEEYxsVIjs-e-70" value="PullSchedulerTRIGGER " style="verticalAlign=middle;endArrow=block;edgeStyle=elbowEdgeStyle;elbow=vertical;curved=0;rounded=0;" parent="1" edge="1">
          <mxGeometry relative="1" as="geometry">
            <Array as="points">
              <mxPoint x="673" y="225" />
            </Array>
            <mxPoint x="782.5" y="225" as="sourcePoint" />
            <mxPoint x="582.5" y="225" as="targetPoint" />
          </mxGeometry>
        </mxCell>
        <mxCell id="h0R1vqVFpEEYxsVIjs-e-71" value="PullService.OphalenAanvraagIdsMetStatusRequest&#xa; (REQ1)" style="verticalAlign=middle;endArrow=block;edgeStyle=elbowEdgeStyle;elbow=vertical;curved=0;rounded=0;" parent="1" edge="1">
          <mxGeometry relative="1" as="geometry">
            <Array as="points">
              <mxPoint x="397" y="245" />
            </Array>
            <mxPoint x="582.5" y="245" as="sourcePoint" />
            <mxPoint x="189.5" y="245" as="targetPoint" />
          </mxGeometry>
        </mxCell>
        <mxCell id="h0R1vqVFpEEYxsVIjs-e-72" value="PullService.OphalenAanvraagIdsResponse&#xa; RES1" style="verticalAlign=middle;endArrow=block;edgeStyle=elbowEdgeStyle;elbow=horizontal;curved=0;rounded=0;dashed=1;dashPattern=2 3;" parent="1" edge="1">
          <mxGeometry relative="1" as="geometry">
            <Array as="points">
              <mxPoint x="394.5" y="275" />
            </Array>
            <mxPoint x="187" y="275" as="sourcePoint" />
            <mxPoint x="580" y="275" as="targetPoint" />
          </mxGeometry>
        </mxCell>
        <mxCell id="h0R1vqVFpEEYxsVIjs-e-73" value="PullService.OphalenAanvraagRequest&#xa;(REQ2)" style="verticalAlign=middle;endArrow=block;edgeStyle=elbowEdgeStyle;elbow=horizontal;curved=0;rounded=0;" parent="1" edge="1">
          <mxGeometry relative="1" as="geometry">
            <Array as="points">
              <mxPoint x="397" y="329" />
            </Array>
            <mxPoint x="582.5" y="329" as="sourcePoint" />
            <mxPoint x="189.5" y="329" as="targetPoint" />
          </mxGeometry>
        </mxCell>
        <mxCell id="h0R1vqVFpEEYxsVIjs-e-74" value="PullService.OphalenAanvraagResponse&#xa; (RES2)" style="verticalAlign=middle;endArrow=block;edgeStyle=elbowEdgeStyle;elbow=horizontal;curved=0;rounded=0;dashed=1;dashPattern=2 3;" parent="1" edge="1">
          <mxGeometry x="0.0025" relative="1" as="geometry">
            <Array as="points">
              <mxPoint x="397" y="363" />
            </Array>
            <mxPoint x="189.5" y="363" as="sourcePoint" />
            <mxPoint x="582.5" y="363" as="targetPoint" />
            <mxPoint as="offset" />
          </mxGeometry>
        </mxCell>
        <mxCell id="h0R1vqVFpEEYxsVIjs-e-75" value="GoEfficient_Request06ReadExistingAanvraagID_REQ6" style="verticalAlign=middle;endArrow=block;edgeStyle=elbowEdgeStyle;elbow=vertical;curved=0;rounded=0;" parent="1" edge="1">
          <mxGeometry relative="1" as="geometry">
            <Array as="points">
              <mxPoint x="793" y="391" />
            </Array>
            <mxPoint x="582.5" y="391" as="sourcePoint" />
            <mxPoint x="982.5" y="391" as="targetPoint" />
            <mxPoint as="offset" />
          </mxGeometry>
        </mxCell>
        <mxCell id="h0R1vqVFpEEYxsVIjs-e-76" value="GoEfficient _Request06ReadExistingAanvraagID_RES6" style="verticalAlign=middle;endArrow=block;edgeStyle=elbowEdgeStyle;elbow=vertical;curved=0;rounded=0;dashed=1;dashPattern=2 3;" parent="1" edge="1">
          <mxGeometry relative="1" as="geometry">
            <Array as="points">
              <mxPoint x="793" y="415" />
            </Array>
            <mxPoint x="982.5" y="415" as="sourcePoint" />
            <mxPoint x="582.5" y="415" as="targetPoint" />
          </mxGeometry>
        </mxCell>
        <mxCell id="h0R1vqVFpEEYxsVIjs-e-77" value="GoEfficient_InstanceTemplateRequest_REQ04" style="verticalAlign=middle;endArrow=block;edgeStyle=elbowEdgeStyle;elbow=horizontal;curved=0;rounded=0;" parent="1" edge="1">
          <mxGeometry relative="1" as="geometry">
            <Array as="points">
              <mxPoint x="795" y="460" />
            </Array>
            <mxPoint x="584.5" y="460" as="sourcePoint" />
            <mxPoint x="984.5" y="460" as="targetPoint" />
          </mxGeometry>
        </mxCell>
        <mxCell id="h0R1vqVFpEEYxsVIjs-e-78" value="GoEfficient_InstanceTemplateResponse_RES04" style="verticalAlign=middle;endArrow=block;edgeStyle=elbowEdgeStyle;elbow=horizontal;curved=0;rounded=0;dashed=1;dashPattern=2 3;" parent="1" edge="1">
          <mxGeometry relative="1" as="geometry">
            <Array as="points">
              <mxPoint x="795" y="486" />
            </Array>
            <mxPoint x="984.5" y="486" as="sourcePoint" />
            <mxPoint x="584.5" y="486" as="targetPoint" />
          </mxGeometry>
        </mxCell>
        <mxCell id="h0R1vqVFpEEYxsVIjs-e-79" value="GoEfficient_InstantiatedAttacmentsRequest_REQ04a" style="verticalAlign=middle;endArrow=block;edgeStyle=elbowEdgeStyle;elbow=vertical;curved=0;rounded=0;" parent="1" edge="1">
          <mxGeometry relative="1" as="geometry">
            <Array as="points">
              <mxPoint x="794" y="535" />
            </Array>
            <mxPoint x="583.5" y="535" as="sourcePoint" />
            <mxPoint x="983.5" y="535" as="targetPoint" />
          </mxGeometry>
        </mxCell>
        <mxCell id="h0R1vqVFpEEYxsVIjs-e-80" value="GoEfficient_InstantiatedAttacmentsResponse_RES04a" style="verticalAlign=middle;endArrow=block;edgeStyle=elbowEdgeStyle;elbow=vertical;curved=0;rounded=0;dashed=1;dashPattern=2 3;" parent="1" edge="1">
          <mxGeometry relative="1" as="geometry">
            <Array as="points">
              <mxPoint x="794" y="559" />
            </Array>
            <mxPoint x="983.5" y="559" as="sourcePoint" />
            <mxPoint x="583.5" y="559" as="targetPoint" />
          </mxGeometry>
        </mxCell>
        <mxCell id="h0R1vqVFpEEYxsVIjs-e-81" value="PullService_OphalenBijlageIdsRequest_REQ3" style="verticalAlign=middle;endArrow=block;edgeStyle=elbowEdgeStyle;elbow=vertical;curved=0;rounded=0;" parent="1" edge="1">
          <mxGeometry relative="1" as="geometry">
            <Array as="points">
              <mxPoint x="393.75" y="774" />
            </Array>
            <mxPoint x="579.25" y="774" as="sourcePoint" />
            <mxPoint x="186.25" y="774" as="targetPoint" />
          </mxGeometry>
        </mxCell>
        <mxCell id="h0R1vqVFpEEYxsVIjs-e-82" value="PullService_OphalenBijlageIdsResponse_RES3" style="verticalAlign=middle;endArrow=block;edgeStyle=elbowEdgeStyle;elbow=vertical;curved=0;rounded=0;dashed=1;dashPattern=2 3;" parent="1" edge="1">
          <mxGeometry relative="1" as="geometry">
            <Array as="points">
              <mxPoint x="393.75" y="798" />
            </Array>
            <mxPoint x="186.25" y="798" as="sourcePoint" />
            <mxPoint x="579.25" y="798" as="targetPoint" />
          </mxGeometry>
        </mxCell>
        <mxCell id="h0R1vqVFpEEYxsVIjs-e-83" value="PullService_OphalenAanvraagPdfRequest_REQ4" style="verticalAlign=middle;endArrow=block;edgeStyle=elbowEdgeStyle;elbow=vertical;curved=0;rounded=0;" parent="1" edge="1">
          <mxGeometry x="0.0025" relative="1" as="geometry">
            <Array as="points">
              <mxPoint x="389.75" y="951" />
            </Array>
            <mxPoint x="575.25" y="951" as="sourcePoint" />
            <mxPoint x="182.25" y="951" as="targetPoint" />
            <mxPoint as="offset" />
          </mxGeometry>
        </mxCell>
        <mxCell id="h0R1vqVFpEEYxsVIjs-e-84" value="PullService_OphalenAanvraagPdfRequest_RES4" style="verticalAlign=middle;endArrow=block;edgeStyle=elbowEdgeStyle;elbow=horizontal;curved=0;rounded=0;dashed=1;dashPattern=2 3;" parent="1" edge="1">
          <mxGeometry relative="1" as="geometry">
            <Array as="points">
              <mxPoint x="393.75" y="987" />
            </Array>
            <mxPoint x="186.25" y="987" as="sourcePoint" />
            <mxPoint x="579.25" y="987" as="targetPoint" />
          </mxGeometry>
        </mxCell>
        <mxCell id="h0R1vqVFpEEYxsVIjs-e-85" value="GoEfficient_UpdateInstantiatedAttachmentsRequest_REQ05" style="verticalAlign=middle;endArrow=block;edgeStyle=elbowEdgeStyle;elbow=horizontal;curved=0;rounded=0;" parent="1" edge="1">
          <mxGeometry relative="1" as="geometry">
            <Array as="points">
              <mxPoint x="794" y="654" />
            </Array>
            <mxPoint x="583.5" y="654" as="sourcePoint" />
            <mxPoint x="983.5" y="654" as="targetPoint" />
          </mxGeometry>
        </mxCell>
        <mxCell id="h0R1vqVFpEEYxsVIjs-e-86" value="GoEfficient_UpdateInstantiatedAttachmentsResponse_RES05" style="verticalAlign=middle;endArrow=block;edgeStyle=elbowEdgeStyle;elbow=vertical;curved=0;rounded=0;dashed=1;dashPattern=2 3;" parent="1" edge="1">
          <mxGeometry relative="1" as="geometry">
            <Array as="points">
              <mxPoint x="794" y="677" />
            </Array>
            <mxPoint x="983.5" y="677" as="sourcePoint" />
            <mxPoint x="583.5" y="677" as="targetPoint" />
          </mxGeometry>
        </mxCell>
        <mxCell id="h0R1vqVFpEEYxsVIjs-e-91" value="PowerShell script" style="text;html=1;align=center;verticalAlign=middle;resizable=0;points=[];autosize=1;strokeColor=none;fillColor=none;" parent="1" vertex="1">
          <mxGeometry x="618" y="222" width="114" height="30" as="geometry" />
        </mxCell>
        <mxCell id="h0R1vqVFpEEYxsVIjs-e-92" value="GoEfficient_UpdateInstantiatedAddressAttachmentsRequest_REQ05a" style="verticalAlign=middle;endArrow=block;edgeStyle=elbowEdgeStyle;elbow=horizontal;curved=0;rounded=0;" parent="1" edge="1">
          <mxGeometry relative="1" as="geometry">
            <Array as="points">
              <mxPoint x="793" y="726" />
            </Array>
            <mxPoint x="582.5" y="726" as="sourcePoint" />
            <mxPoint x="982.5" y="726" as="targetPoint" />
          </mxGeometry>
        </mxCell>
        <mxCell id="h0R1vqVFpEEYxsVIjs-e-93" value="GoEfficient_UpdateInstantiatedAddressAttachmentsResponse_RES05a" style="verticalAlign=middle;endArrow=block;edgeStyle=elbowEdgeStyle;elbow=vertical;curved=0;rounded=0;dashed=1;dashPattern=2 3;" parent="1" edge="1">
          <mxGeometry relative="1" as="geometry">
            <Array as="points">
              <mxPoint x="793" y="749" />
            </Array>
            <mxPoint x="982.5" y="749" as="sourcePoint" />
            <mxPoint x="582.5" y="749" as="targetPoint" />
          </mxGeometry>
        </mxCell>
        <mxCell id="7Y7CbUqgQ64-pSUDz7Pk-1" value="Ophalen Req3 is used to retrieve the attachments" style="rounded=0;whiteSpace=wrap;html=1;" parent="1" vertex="1">
          <mxGeometry x="216" y="666" width="336" height="60" as="geometry" />
        </mxCell>
        <mxCell id="7Y7CbUqgQ64-pSUDz7Pk-2" value="GoEfficient Req6 is a new service to verify if the order is already existing in GoEfficient." style="rounded=0;whiteSpace=wrap;html=1;" parent="1" vertex="1">
          <mxGeometry x="606" y="282" width="336" height="60" as="geometry" />
        </mxCell>
        <mxCell id="gj4CthEJvnP_cS56TIXd-1" value="PullService_OphalenBijlageRequest_REQ3a" style="verticalAlign=middle;endArrow=block;edgeStyle=elbowEdgeStyle;elbow=vertical;curved=0;rounded=0;" parent="1" edge="1">
          <mxGeometry relative="1" as="geometry">
            <Array as="points">
              <mxPoint x="394.25" y="879" />
            </Array>
            <mxPoint x="579.75" y="879" as="sourcePoint" />
            <mxPoint x="186.75" y="879" as="targetPoint" />
          </mxGeometry>
        </mxCell>
        <mxCell id="CqXmmaY9Fl7YaOd1tQh8-3" value="GoEfficient_Request05bUpdateInstantiatedFileContentsAttachments_REQ05b" style="verticalAlign=middle;endArrow=block;edgeStyle=elbowEdgeStyle;elbow=horizontal;curved=0;rounded=0;" parent="1" edge="1">
          <mxGeometry x="-0.045" relative="1" as="geometry">
            <Array as="points">
              <mxPoint x="793.5" y="1074" />
            </Array>
            <mxPoint x="583" y="1074" as="sourcePoint" />
            <mxPoint x="983" y="1074" as="targetPoint" />
            <mxPoint as="offset" />
          </mxGeometry>
        </mxCell>
        <mxCell id="CqXmmaY9Fl7YaOd1tQh8-4" value="GoEfficient_Request05bUpdateInstantiatedFileContentsAttachments_RES05b" style="verticalAlign=middle;endArrow=block;edgeStyle=elbowEdgeStyle;elbow=vertical;curved=0;rounded=0;dashed=1;dashPattern=2 3;" parent="1" edge="1">
          <mxGeometry relative="1" as="geometry">
            <Array as="points">
              <mxPoint x="793.5" y="1098" />
            </Array>
            <mxPoint x="983" y="1098" as="sourcePoint" />
            <mxPoint x="583" y="1098" as="targetPoint" />
          </mxGeometry>
        </mxCell>
        <mxCell id="jGkeV7tHS1ORTO6OUWkT-1" value="PullService_OphalenBijlageResponse_RES3a" style="verticalAlign=middle;endArrow=block;edgeStyle=elbowEdgeStyle;elbow=vertical;curved=0;rounded=0;dashed=1;dashPattern=2 3;" parent="1" edge="1">
          <mxGeometry relative="1" as="geometry">
            <Array as="points">
              <mxPoint x="400.25" y="903" />
            </Array>
            <mxPoint x="192.75" y="903" as="sourcePoint" />
            <mxPoint x="585.75" y="903" as="targetPoint" />
          </mxGeometry>
        </mxCell>
        <mxCell id="Sl9HK59kQZSJpzrcrjIG-1" value="Status transition from 3a--&amp;gt;3b automatically at MA side." style="rounded=0;whiteSpace=wrap;html=1;" parent="1" vertex="1">
          <mxGeometry x="318" y="390" width="120" height="60" as="geometry" />
        </mxCell>
        <mxCell id="vJv-E73JuUqojEPHt8D0-1" value="4a will also contain the situatsie and plattegrond details.&amp;nbsp;" style="rounded=0;whiteSpace=wrap;html=1;" parent="1" vertex="1">
          <mxGeometry x="804" y="576" width="120" height="60" as="geometry" />
        </mxCell>
        <mxCell id="vJv-E73JuUqojEPHt8D0-3" value="&lt;font style=&quot;font-size: 8px;&quot;&gt;GE009V/GE009NV or GE013V/GE013NV, one of the codes is available in the call. It is an assumption for now.&lt;/font&gt;" style="text;html=1;strokeColor=none;fillColor=none;align=center;verticalAlign=middle;whiteSpace=wrap;rounded=0;" parent="1" vertex="1">
          <mxGeometry x="312" y="810" width="156" height="42" as="geometry" />
        </mxCell>
      </root>
    </mxGraphModel>
  </diagram>
  <diagram id="yzCMW8Yl6WJgGFaSdPO7" name="MijAansluting-GoEfficient_OrderProgress">
    <mxGraphModel dx="1276" dy="606" grid="1" gridSize="10" guides="1" tooltips="1" connect="1" arrows="1" fold="1" page="1" pageScale="1" pageWidth="850" pageHeight="1100" math="0" shadow="0">
      <root>
        <mxCell id="0" />
        <mxCell id="1" parent="0" />
        <mxCell id="sYCqR84xcNUQQtMvRfSn-1" value="MijnAansluiting.nl" style="shape=umlLifeline;perimeter=lifelinePerimeter;whiteSpace=wrap;container=1;dropTarget=0;collapsible=0;recursiveResize=0;outlineConnect=0;portConstraint=eastwest;newEdgeStyle={&quot;edgeStyle&quot;:&quot;elbowEdgeStyle&quot;,&quot;elbow&quot;:&quot;vertical&quot;,&quot;curved&quot;:0,&quot;rounded&quot;:0};size=65;" parent="1" vertex="1">
          <mxGeometry x="80" y="122" width="150" height="1008" as="geometry" />
        </mxCell>
        <mxCell id="sYCqR84xcNUQQtMvRfSn-2" value="LIPBroker" style="shape=umlLifeline;perimeter=lifelinePerimeter;whiteSpace=wrap;container=1;dropTarget=0;collapsible=0;recursiveResize=0;outlineConnect=0;portConstraint=eastwest;newEdgeStyle={&quot;edgeStyle&quot;:&quot;elbowEdgeStyle&quot;,&quot;elbow&quot;:&quot;vertical&quot;,&quot;curved&quot;:0,&quot;rounded&quot;:0};size=65;" parent="1" vertex="1">
          <mxGeometry x="473" y="122" width="150" height="1008" as="geometry" />
        </mxCell>
        <mxCell id="sYCqR84xcNUQQtMvRfSn-3" value="P2ALinker" style="shape=umlLifeline;perimeter=lifelinePerimeter;whiteSpace=wrap;container=1;dropTarget=0;collapsible=0;recursiveResize=0;outlineConnect=0;portConstraint=eastwest;newEdgeStyle={&quot;edgeStyle&quot;:&quot;elbowEdgeStyle&quot;,&quot;elbow&quot;:&quot;vertical&quot;,&quot;curved&quot;:0,&quot;rounded&quot;:0};size=65;" parent="1" vertex="1">
          <mxGeometry x="673" y="122" width="150" height="1008" as="geometry" />
        </mxCell>
        <mxCell id="sYCqR84xcNUQQtMvRfSn-4" value="GoEfficient" style="shape=umlLifeline;perimeter=lifelinePerimeter;whiteSpace=wrap;container=1;dropTarget=0;collapsible=0;recursiveResize=0;outlineConnect=0;portConstraint=eastwest;newEdgeStyle={&quot;edgeStyle&quot;:&quot;elbowEdgeStyle&quot;,&quot;elbow&quot;:&quot;vertical&quot;,&quot;curved&quot;:0,&quot;rounded&quot;:0};size=65;" parent="1" vertex="1">
          <mxGeometry x="873" y="122" width="150" height="1008" as="geometry" />
        </mxCell>
        <mxCell id="sYCqR84xcNUQQtMvRfSn-5" value="T&amp;TSchedulerTRIGGER " style="verticalAlign=middle;endArrow=block;edgeStyle=elbowEdgeStyle;elbow=vertical;curved=0;rounded=0;" parent="1" edge="1">
          <mxGeometry relative="1" as="geometry">
            <Array as="points">
              <mxPoint x="638" y="225" />
            </Array>
            <mxPoint x="747.5" y="225" as="sourcePoint" />
            <mxPoint x="547.5" y="225" as="targetPoint" />
          </mxGeometry>
        </mxCell>
        <mxCell id="sYCqR84xcNUQQtMvRfSn-22" value="Track&amp;Trace_BijwerkenStatusRequest_REQ4" style="verticalAlign=middle;endArrow=block;edgeStyle=elbowEdgeStyle;elbow=horizontal;curved=0;rounded=0;" parent="1" edge="1">
          <mxGeometry x="0.0025" relative="1" as="geometry">
            <Array as="points">
              <mxPoint x="363" y="576" />
            </Array>
            <mxPoint x="548.5" y="576" as="sourcePoint" />
            <mxPoint x="155.5" y="576" as="targetPoint" />
            <mxPoint as="offset" />
          </mxGeometry>
        </mxCell>
        <mxCell id="sYCqR84xcNUQQtMvRfSn-23" value="Track&amp;Trace_BijwerkenStatusResponse_RES4( 200 OK)" style="verticalAlign=middle;endArrow=block;edgeStyle=elbowEdgeStyle;elbow=horizontal;curved=0;rounded=0;dashed=1;dashPattern=2 3;" parent="1" edge="1">
          <mxGeometry relative="1" as="geometry">
            <Array as="points">
              <mxPoint x="363" y="595" />
            </Array>
            <mxPoint x="155.5" y="595" as="sourcePoint" />
            <mxPoint x="548.5" y="595" as="targetPoint" />
          </mxGeometry>
        </mxCell>
        <mxCell id="sYCqR84xcNUQQtMvRfSn-29" value="GoEfficient_Request07aCloseTask_REQ7a" style="verticalAlign=middle;endArrow=block;edgeStyle=elbowEdgeStyle;elbow=horizontal;curved=0;rounded=0;" parent="1" edge="1">
          <mxGeometry relative="1" as="geometry">
            <Array as="points">
              <mxPoint x="758.5" y="620" />
            </Array>
            <mxPoint x="548" y="620" as="sourcePoint" />
            <mxPoint x="948" y="620" as="targetPoint" />
          </mxGeometry>
        </mxCell>
        <mxCell id="sYCqR84xcNUQQtMvRfSn-30" value="GoEfficient_Request07aCloseTask_RES7a" style="verticalAlign=middle;endArrow=block;edgeStyle=elbowEdgeStyle;elbow=vertical;curved=0;rounded=0;dashed=1;dashPattern=2 3;" parent="1" edge="1">
          <mxGeometry relative="1" as="geometry">
            <Array as="points">
              <mxPoint x="758.5" y="660" />
            </Array>
            <mxPoint x="948" y="660" as="sourcePoint" />
            <mxPoint x="548" y="660" as="targetPoint" />
          </mxGeometry>
        </mxCell>
        <mxCell id="sYCqR84xcNUQQtMvRfSn-32" value="GoEfficient_Request07_ReadOpenTasksByTemplateID_REQ7" style="verticalAlign=middle;endArrow=block;edgeStyle=elbowEdgeStyle;elbow=horizontal;curved=0;rounded=0;" parent="1" edge="1">
          <mxGeometry relative="1" as="geometry">
            <Array as="points">
              <mxPoint x="758.5" y="400" />
            </Array>
            <mxPoint x="548" y="400" as="sourcePoint" />
            <mxPoint x="948" y="400" as="targetPoint" />
            <mxPoint as="offset" />
          </mxGeometry>
        </mxCell>
        <mxCell id="sYCqR84xcNUQQtMvRfSn-33" value="GoEfficient_Request07_ReadOpenTasksByTemplateID_RES7" style="verticalAlign=middle;endArrow=block;edgeStyle=elbowEdgeStyle;elbow=vertical;curved=0;rounded=0;dashed=1;dashPattern=2 3;" parent="1" edge="1">
          <mxGeometry x="0.09" relative="1" as="geometry">
            <Array as="points">
              <mxPoint x="758.5" y="430" />
            </Array>
            <mxPoint x="948" y="430" as="sourcePoint" />
            <mxPoint x="548" y="430" as="targetPoint" />
            <mxPoint as="offset" />
          </mxGeometry>
        </mxCell>
        <mxCell id="zvUuze8OPet-JVfEVGUY-3" value="Powershell Script" style="rounded=0;whiteSpace=wrap;html=1;" parent="1" vertex="1">
          <mxGeometry x="610" y="230" width="80" height="32" as="geometry" />
        </mxCell>
        <mxCell id="zvUuze8OPet-JVfEVGUY-10" value="&lt;ul type=&quot;disc&quot;&gt;&lt;li class=&quot;MsoNormal&quot;&gt;Bevestiging na-aanleg klant status 2 =&amp;gt;&lt;br&gt;     Template ID 9246350 will be instantiated as task =&amp;gt; TrackenTraceService&lt;br&gt;     status =&amp;gt; 5. TemplateId&#39;s are stored in WebConfig.&lt;/li&gt;&lt;li style=&quot;border-color: var(--border-color);&quot; class=&quot;MsoNormal&quot;&gt;RFS melden =&amp;gt; Template ID 9246351 will be&lt;br style=&quot;border-color: var(--border-color);&quot;&gt;instantiated as task =&amp;gt; TrackenTraceService status =&amp;gt; 9.1&lt;/li&gt;&lt;li&gt;&lt;/li&gt;&lt;br&gt;&lt;/ul&gt;" style="rounded=0;whiteSpace=wrap;html=1;" parent="1" vertex="1">
          <mxGeometry x="290" y="280" width="550" height="100" as="geometry" />
        </mxCell>
        <mxCell id="zvUuze8OPet-JVfEVGUY-12" value="Set the status to 5 or 9.1 as per the mapping will be stored in WebConfig." style="rounded=0;whiteSpace=wrap;html=1;" parent="1" vertex="1">
          <mxGeometry x="270" y="616" width="120" height="60" as="geometry" />
        </mxCell>
        <mxCell id="kinOx0Z4nqEb4avhYakn-1" value="PROID_DESC to be used for retreving data via 4a. ObjectId, Aanvraagid and Disciplineid needs to be read for each instance" style="text;html=1;strokeColor=none;fillColor=none;align=center;verticalAlign=middle;whiteSpace=wrap;rounded=0;" parent="1" vertex="1">
          <mxGeometry x="970" y="360" width="520" height="30" as="geometry" />
        </mxCell>
        <mxCell id="sqd6PWmFfHY5ujFvlNe4-1" value="GoEfficient_InstantiatedAttacmentsRequest_REQ04a" style="verticalAlign=middle;endArrow=block;edgeStyle=elbowEdgeStyle;elbow=vertical;curved=0;rounded=0;" parent="1" edge="1">
          <mxGeometry relative="1" as="geometry">
            <Array as="points">
              <mxPoint x="758.5" y="490" />
            </Array>
            <mxPoint x="548" y="490" as="sourcePoint" />
            <mxPoint x="948" y="490" as="targetPoint" />
          </mxGeometry>
        </mxCell>
        <mxCell id="sqd6PWmFfHY5ujFvlNe4-2" value="GoEfficient_InstantiatedAttacmentsResponse_RES04a" style="verticalAlign=middle;endArrow=block;edgeStyle=elbowEdgeStyle;elbow=vertical;curved=0;rounded=0;dashed=1;dashPattern=2 3;" parent="1" edge="1">
          <mxGeometry relative="1" as="geometry">
            <Array as="points">
              <mxPoint x="758.5" y="514" />
            </Array>
            <mxPoint x="948" y="514" as="sourcePoint" />
            <mxPoint x="548" y="514" as="targetPoint" />
          </mxGeometry>
        </mxCell>
      </root>
    </mxGraphModel>
  </diagram>
  <diagram id="jAoNP2DaMi0Wcs2cJuNF" name="CIFWMS-GoEfficient_OrderIntake">
    <mxGraphModel dx="1276" dy="606" grid="1" gridSize="10" guides="1" tooltips="1" connect="1" arrows="1" fold="1" page="1" pageScale="1" pageWidth="1100" pageHeight="850" math="0" shadow="0">
      <root>
        <mxCell id="0" />
        <mxCell id="1" parent="0" />
        <mxCell id="gJySorUdbJTkg8Jeszp1-1" value="CIF WMS Beheerder" style="shape=umlLifeline;perimeter=lifelinePerimeter;whiteSpace=wrap;container=1;dropTarget=0;collapsible=0;recursiveResize=0;outlineConnect=0;portConstraint=eastwest;newEdgeStyle={&quot;edgeStyle&quot;:&quot;elbowEdgeStyle&quot;,&quot;elbow&quot;:&quot;vertical&quot;,&quot;curved&quot;:0,&quot;rounded&quot;:0};size=65;" parent="1" vertex="1">
          <mxGeometry x="115" y="122" width="150" height="1008" as="geometry" />
        </mxCell>
        <mxCell id="gJySorUdbJTkg8Jeszp1-2" value="WMS Broker" style="shape=umlLifeline;perimeter=lifelinePerimeter;whiteSpace=wrap;container=1;dropTarget=0;collapsible=0;recursiveResize=0;outlineConnect=0;portConstraint=eastwest;newEdgeStyle={&quot;edgeStyle&quot;:&quot;elbowEdgeStyle&quot;,&quot;elbow&quot;:&quot;vertical&quot;,&quot;curved&quot;:0,&quot;rounded&quot;:0};size=65;" parent="1" vertex="1">
          <mxGeometry x="520" y="122" width="150" height="1008" as="geometry" />
        </mxCell>
        <mxCell id="gJySorUdbJTkg8Jeszp1-3" value="P2ALinker" style="shape=umlLifeline;perimeter=lifelinePerimeter;whiteSpace=wrap;container=1;dropTarget=0;collapsible=0;recursiveResize=0;outlineConnect=0;portConstraint=eastwest;newEdgeStyle={&quot;edgeStyle&quot;:&quot;elbowEdgeStyle&quot;,&quot;elbow&quot;:&quot;vertical&quot;,&quot;curved&quot;:0,&quot;rounded&quot;:0};size=65;" parent="1" vertex="1">
          <mxGeometry x="708" y="122" width="150" height="1008" as="geometry" />
        </mxCell>
        <mxCell id="gJySorUdbJTkg8Jeszp1-4" value="GoEfficient" style="shape=umlLifeline;perimeter=lifelinePerimeter;whiteSpace=wrap;container=1;dropTarget=0;collapsible=0;recursiveResize=0;outlineConnect=0;portConstraint=eastwest;newEdgeStyle={&quot;edgeStyle&quot;:&quot;elbowEdgeStyle&quot;,&quot;elbow&quot;:&quot;vertical&quot;,&quot;curved&quot;:0,&quot;rounded&quot;:0};size=65;" parent="1" vertex="1">
          <mxGeometry x="940" y="122" width="150" height="1008" as="geometry" />
        </mxCell>
        <mxCell id="gJySorUdbJTkg8Jeszp1-29" value="" style="endArrow=classic;html=1;rounded=0;" parent="1" edge="1">
          <mxGeometry width="50" height="50" relative="1" as="geometry">
            <mxPoint x="189.5" y="252" as="sourcePoint" />
            <mxPoint x="582.5" y="252" as="targetPoint" />
          </mxGeometry>
        </mxCell>
        <mxCell id="gJySorUdbJTkg8Jeszp1-30" value="TaskIndication (Post)" style="edgeLabel;html=1;align=center;verticalAlign=middle;resizable=0;points=[];" parent="gJySorUdbJTkg8Jeszp1-29" vertex="1" connectable="0">
          <mxGeometry x="-0.401" y="-1" relative="1" as="geometry">
            <mxPoint x="83" as="offset" />
          </mxGeometry>
        </mxCell>
        <mxCell id="gJySorUdbJTkg8Jeszp1-32" value="TaskIndicationResponse" style="verticalAlign=middle;endArrow=block;edgeStyle=elbowEdgeStyle;elbow=horizontal;curved=0;rounded=0;dashed=1;dashPattern=2 3;" parent="1" edge="1">
          <mxGeometry relative="1" as="geometry">
            <Array as="points">
              <mxPoint x="400.5" y="290" />
            </Array>
            <mxPoint x="590" y="290" as="sourcePoint" />
            <mxPoint x="190" y="290" as="targetPoint" />
          </mxGeometry>
        </mxCell>
        <mxCell id="gJySorUdbJTkg8Jeszp1-33" value="" style="endArrow=classic;html=1;rounded=0;" parent="1" edge="1">
          <mxGeometry width="50" height="50" relative="1" as="geometry">
            <mxPoint x="582.5" y="330" as="sourcePoint" />
            <mxPoint x="189.5" y="330" as="targetPoint" />
          </mxGeometry>
        </mxCell>
        <mxCell id="gJySorUdbJTkg8Jeszp1-34" value="TaskFetch (Get)" style="edgeLabel;html=1;align=center;verticalAlign=middle;resizable=0;points=[];" parent="gJySorUdbJTkg8Jeszp1-33" vertex="1" connectable="0">
          <mxGeometry x="-0.401" y="-1" relative="1" as="geometry">
            <mxPoint x="-104" as="offset" />
          </mxGeometry>
        </mxCell>
        <mxCell id="gJySorUdbJTkg8Jeszp1-35" value="TaskFetchResponse" style="verticalAlign=middle;endArrow=block;edgeStyle=elbowEdgeStyle;elbow=horizontal;curved=0;rounded=0;dashed=1;dashPattern=2 3;" parent="1" source="gJySorUdbJTkg8Jeszp1-1" target="gJySorUdbJTkg8Jeszp1-2" edge="1">
          <mxGeometry relative="1" as="geometry">
            <Array as="points">
              <mxPoint x="401" y="368" />
            </Array>
            <mxPoint x="590.5" y="368" as="sourcePoint" />
            <mxPoint x="360" y="610" as="targetPoint" />
          </mxGeometry>
        </mxCell>
        <mxCell id="gJySorUdbJTkg8Jeszp1-36" value="" style="endArrow=classic;html=1;rounded=0;" parent="1" edge="1">
          <mxGeometry width="50" height="50" relative="1" as="geometry">
            <mxPoint x="595" y="830" as="sourcePoint" />
            <mxPoint x="190" y="830" as="targetPoint" />
          </mxGeometry>
        </mxCell>
        <mxCell id="gJySorUdbJTkg8Jeszp1-37" value="TaskSync (Put)" style="edgeLabel;html=1;align=center;verticalAlign=middle;resizable=0;points=[];" parent="gJySorUdbJTkg8Jeszp1-36" vertex="1" connectable="0">
          <mxGeometry x="-0.401" y="-1" relative="1" as="geometry">
            <mxPoint x="-94" as="offset" />
          </mxGeometry>
        </mxCell>
        <mxCell id="gJySorUdbJTkg8Jeszp1-38" value="TaskSyncResponse" style="verticalAlign=middle;endArrow=block;edgeStyle=elbowEdgeStyle;elbow=horizontal;curved=0;rounded=0;dashed=1;dashPattern=2 3;" parent="1" edge="1">
          <mxGeometry relative="1" as="geometry">
            <Array as="points">
              <mxPoint x="401.5" y="870" />
            </Array>
            <mxPoint x="190" y="870" as="sourcePoint" />
            <mxPoint x="595" y="870" as="targetPoint" />
          </mxGeometry>
        </mxCell>
        <mxCell id="AqQD34b43D2AwECK77he-4" value="If the Order does not exist in GoEfficient it will be created and steps from 4 onwards will be processed. Else Task Sync is executed directly." style="rounded=0;whiteSpace=wrap;html=1;" parent="1" vertex="1">
          <mxGeometry x="618" y="280" width="330" height="60" as="geometry" />
        </mxCell>
        <mxCell id="2U5SlM-5EVQXkdVqtLQ9-1" value="GoEfficient_Request06ReadExistingAanvraagID_REQ6" style="verticalAlign=middle;endArrow=block;edgeStyle=elbowEdgeStyle;elbow=vertical;curved=0;rounded=0;entryX=0;entryY=0.5;entryDx=0;entryDy=0;" parent="1" target="-xpgjO2XoJS-lDxdiYuW-3" edge="1">
          <mxGeometry relative="1" as="geometry">
            <Array as="points">
              <mxPoint x="810.5" y="394.5" />
            </Array>
            <mxPoint x="600" y="394.5" as="sourcePoint" />
            <mxPoint x="1000" y="394.5" as="targetPoint" />
            <mxPoint as="offset" />
          </mxGeometry>
        </mxCell>
        <mxCell id="2U5SlM-5EVQXkdVqtLQ9-2" value="GoEfficient _Request06ReadExistingAanvraagID_RES6" style="verticalAlign=middle;endArrow=block;edgeStyle=elbowEdgeStyle;elbow=vertical;curved=0;rounded=0;dashed=1;dashPattern=2 3;" parent="1" source="gJySorUdbJTkg8Jeszp1-4" edge="1">
          <mxGeometry relative="1" as="geometry">
            <Array as="points">
              <mxPoint x="793" y="415" />
            </Array>
            <mxPoint x="982.5" y="415" as="sourcePoint" />
            <mxPoint x="582.5" y="415" as="targetPoint" />
          </mxGeometry>
        </mxCell>
        <mxCell id="2U5SlM-5EVQXkdVqtLQ9-3" value="GoEfficient_InstanceTemplateRequest_REQ04" style="verticalAlign=middle;endArrow=block;edgeStyle=elbowEdgeStyle;elbow=horizontal;curved=0;rounded=0;" parent="1" target="-xpgjO2XoJS-lDxdiYuW-4" edge="1">
          <mxGeometry relative="1" as="geometry">
            <Array as="points">
              <mxPoint x="795" y="460" />
            </Array>
            <mxPoint x="584.5" y="460" as="sourcePoint" />
            <mxPoint x="984.5" y="460" as="targetPoint" />
          </mxGeometry>
        </mxCell>
        <mxCell id="2U5SlM-5EVQXkdVqtLQ9-4" value="GoEfficient_InstanceTemplateResponse_RES04" style="verticalAlign=middle;endArrow=block;edgeStyle=elbowEdgeStyle;elbow=horizontal;curved=0;rounded=0;dashed=1;dashPattern=2 3;exitX=0;exitY=1;exitDx=0;exitDy=0;" parent="1" source="-xpgjO2XoJS-lDxdiYuW-4" edge="1">
          <mxGeometry relative="1" as="geometry">
            <Array as="points">
              <mxPoint x="795" y="486" />
            </Array>
            <mxPoint x="984.5" y="486" as="sourcePoint" />
            <mxPoint x="584.5" y="486" as="targetPoint" />
          </mxGeometry>
        </mxCell>
        <mxCell id="2U5SlM-5EVQXkdVqtLQ9-5" value="GoEfficient_InstantiatedAttacmentsRequest_REQ04a" style="verticalAlign=middle;endArrow=block;edgeStyle=elbowEdgeStyle;elbow=vertical;curved=0;rounded=0;" parent="1" target="gJySorUdbJTkg8Jeszp1-4" edge="1">
          <mxGeometry relative="1" as="geometry">
            <Array as="points">
              <mxPoint x="794" y="535" />
            </Array>
            <mxPoint x="583.5" y="535" as="sourcePoint" />
            <mxPoint x="983.5" y="535" as="targetPoint" />
          </mxGeometry>
        </mxCell>
        <mxCell id="2U5SlM-5EVQXkdVqtLQ9-6" value="GoEfficient_InstantiatedAttacmentsResponse_RES04a" style="verticalAlign=middle;endArrow=block;edgeStyle=elbowEdgeStyle;elbow=vertical;curved=0;rounded=0;dashed=1;dashPattern=2 3;" parent="1" source="gJySorUdbJTkg8Jeszp1-4" edge="1">
          <mxGeometry relative="1" as="geometry">
            <Array as="points">
              <mxPoint x="794" y="559" />
            </Array>
            <mxPoint x="983.5" y="559" as="sourcePoint" />
            <mxPoint x="583.5" y="559" as="targetPoint" />
          </mxGeometry>
        </mxCell>
        <mxCell id="2U5SlM-5EVQXkdVqtLQ9-7" value="GoEfficient_UpdateInstantiatedAttachmentsRequest_REQ05" style="verticalAlign=middle;endArrow=block;edgeStyle=elbowEdgeStyle;elbow=horizontal;curved=0;rounded=0;" parent="1" target="gJySorUdbJTkg8Jeszp1-4" edge="1">
          <mxGeometry relative="1" as="geometry">
            <Array as="points">
              <mxPoint x="793.5" y="620" />
            </Array>
            <mxPoint x="583" y="620" as="sourcePoint" />
            <mxPoint x="983" y="620" as="targetPoint" />
          </mxGeometry>
        </mxCell>
        <mxCell id="2U5SlM-5EVQXkdVqtLQ9-8" value="GoEfficient_UpdateInstantiatedAttachmentsResponse_RES05" style="verticalAlign=middle;endArrow=block;edgeStyle=elbowEdgeStyle;elbow=vertical;curved=0;rounded=0;dashed=1;dashPattern=2 3;" parent="1" source="gJySorUdbJTkg8Jeszp1-4" edge="1">
          <mxGeometry relative="1" as="geometry">
            <Array as="points">
              <mxPoint x="793.5" y="643" />
            </Array>
            <mxPoint x="983" y="643" as="sourcePoint" />
            <mxPoint x="583" y="643" as="targetPoint" />
          </mxGeometry>
        </mxCell>
        <mxCell id="2U5SlM-5EVQXkdVqtLQ9-9" value="GoEfficient_UpdateInstantiatedAddressAttachmentsRequest_REQ05a" style="verticalAlign=middle;endArrow=block;edgeStyle=elbowEdgeStyle;elbow=horizontal;curved=0;rounded=0;" parent="1" target="gJySorUdbJTkg8Jeszp1-4" edge="1">
          <mxGeometry relative="1" as="geometry">
            <Array as="points">
              <mxPoint x="800.5" y="680" />
            </Array>
            <mxPoint x="590" y="680" as="sourcePoint" />
            <mxPoint x="990" y="680" as="targetPoint" />
          </mxGeometry>
        </mxCell>
        <mxCell id="2U5SlM-5EVQXkdVqtLQ9-10" value="GoEfficient_UpdateInstantiatedAddressAttachmentsResponse_RES05a" style="verticalAlign=middle;endArrow=block;edgeStyle=elbowEdgeStyle;elbow=vertical;curved=0;rounded=0;dashed=1;dashPattern=2 3;" parent="1" source="gJySorUdbJTkg8Jeszp1-4" edge="1">
          <mxGeometry relative="1" as="geometry">
            <Array as="points">
              <mxPoint x="800.5" y="703" />
            </Array>
            <mxPoint x="990" y="703" as="sourcePoint" />
            <mxPoint x="590" y="703" as="targetPoint" />
          </mxGeometry>
        </mxCell>
        <mxCell id="2U5SlM-5EVQXkdVqtLQ9-15" value="GoEfficient_Request05bUpdateInstantiatedFileContentsAttachments_REQ05b" style="verticalAlign=middle;endArrow=block;edgeStyle=elbowEdgeStyle;elbow=horizontal;curved=0;rounded=0;" parent="1" edge="1">
          <mxGeometry relative="1" as="geometry">
            <Array as="points">
              <mxPoint x="800.5" y="760" />
            </Array>
            <mxPoint x="590" y="760" as="sourcePoint" />
            <mxPoint x="1021.5" y="760" as="targetPoint" />
          </mxGeometry>
        </mxCell>
        <mxCell id="2U5SlM-5EVQXkdVqtLQ9-16" value="GoEfficient_Request05bUpdateInstantiatedFileContentsAttachments_RES05b" style="verticalAlign=middle;endArrow=block;edgeStyle=elbowEdgeStyle;elbow=vertical;curved=0;rounded=0;dashed=1;dashPattern=2 3;" parent="1" edge="1">
          <mxGeometry relative="1" as="geometry">
            <Array as="points">
              <mxPoint x="800.5" y="784" />
            </Array>
            <mxPoint x="1021.5" y="784" as="sourcePoint" />
            <mxPoint x="590" y="784" as="targetPoint" />
          </mxGeometry>
        </mxCell>
        <mxCell id="-xpgjO2XoJS-lDxdiYuW-2" value="The endpoints are already configured at GoEfficient Side.&amp;nbsp;" style="text;html=1;strokeColor=none;fillColor=none;align=center;verticalAlign=middle;whiteSpace=wrap;rounded=0;" parent="1" vertex="1">
          <mxGeometry x="280" y="395" width="210" height="30" as="geometry" />
        </mxCell>
        <mxCell id="-xpgjO2XoJS-lDxdiYuW-3" value="Use the field WMS-INID to identfy the id" style="text;html=1;strokeColor=none;fillColor=none;align=center;verticalAlign=middle;whiteSpace=wrap;rounded=0;" parent="1" vertex="1">
          <mxGeometry x="1010" y="380" width="160" height="30" as="geometry" />
        </mxCell>
        <mxCell id="-xpgjO2XoJS-lDxdiYuW-4" value="Template Id will be based on WebConfig and will be dependent on Order Parameters like New Construct or AfterCare" style="text;html=1;strokeColor=none;fillColor=none;align=center;verticalAlign=middle;whiteSpace=wrap;rounded=0;" parent="1" vertex="1">
          <mxGeometry x="1010" y="440" width="190" height="50" as="geometry" />
        </mxCell>
        <mxCell id="-xpgjO2XoJS-lDxdiYuW-5" value="Task Fetch Response will have data for 4a, 5 &amp;amp; 5a towards GoEfficient" style="text;html=1;strokeColor=none;fillColor=none;align=center;verticalAlign=middle;whiteSpace=wrap;rounded=0;" parent="1" vertex="1">
          <mxGeometry x="205" y="440" width="315" height="30" as="geometry" />
        </mxCell>
        <mxCell id="-xpgjO2XoJS-lDxdiYuW-6" value="May not be needed as AO interface will already provide the attachments." style="text;html=1;strokeColor=none;fillColor=none;align=center;verticalAlign=middle;whiteSpace=wrap;rounded=0;" parent="1" vertex="1">
          <mxGeometry x="1040" y="760" width="190" height="30" as="geometry" />
        </mxCell>
        <mxCell id="3qypd311ZM1TFhoY1yi7-1" value="&lt;font style=&quot;font-size: 24px;&quot;&gt;Examples Needed&lt;/font&gt;" style="text;html=1;strokeColor=none;fillColor=none;align=center;verticalAlign=middle;whiteSpace=wrap;rounded=0;" parent="1" vertex="1">
          <mxGeometry x="250" y="560" width="180" height="30" as="geometry" />
        </mxCell>
      </root>
    </mxGraphModel>
  </diagram>
  <diagram id="HVZPLq3FuTzG29wvhl0O" name="CIFWMS-GoEfficient_OrderProgress">
    <mxGraphModel dx="1276" dy="606" grid="1" gridSize="10" guides="1" tooltips="1" connect="1" arrows="1" fold="1" page="1" pageScale="1" pageWidth="850" pageHeight="1100" math="0" shadow="0">
      <root>
        <mxCell id="0" />
        <mxCell id="1" parent="0" />
        <mxCell id="MUUZQyDY-iv94zFvs__d-1" value="CIF WMS Beheerder" style="shape=umlLifeline;perimeter=lifelinePerimeter;whiteSpace=wrap;container=1;dropTarget=0;collapsible=0;recursiveResize=0;outlineConnect=0;portConstraint=eastwest;newEdgeStyle={&quot;edgeStyle&quot;:&quot;elbowEdgeStyle&quot;,&quot;elbow&quot;:&quot;vertical&quot;,&quot;curved&quot;:0,&quot;rounded&quot;:0};size=65;" parent="1" vertex="1">
          <mxGeometry x="115" y="122" width="150" height="1008" as="geometry" />
        </mxCell>
        <mxCell id="MUUZQyDY-iv94zFvs__d-2" value="WMS Broker" style="shape=umlLifeline;perimeter=lifelinePerimeter;whiteSpace=wrap;container=1;dropTarget=0;collapsible=0;recursiveResize=0;outlineConnect=0;portConstraint=eastwest;newEdgeStyle={&quot;edgeStyle&quot;:&quot;elbowEdgeStyle&quot;,&quot;elbow&quot;:&quot;vertical&quot;,&quot;curved&quot;:0,&quot;rounded&quot;:0};size=65;" parent="1" vertex="1">
          <mxGeometry x="508" y="122" width="150" height="1008" as="geometry" />
        </mxCell>
        <mxCell id="MUUZQyDY-iv94zFvs__d-3" value="P2ALinker" style="shape=umlLifeline;perimeter=lifelinePerimeter;whiteSpace=wrap;container=1;dropTarget=0;collapsible=0;recursiveResize=0;outlineConnect=0;portConstraint=eastwest;newEdgeStyle={&quot;edgeStyle&quot;:&quot;elbowEdgeStyle&quot;,&quot;elbow&quot;:&quot;vertical&quot;,&quot;curved&quot;:0,&quot;rounded&quot;:0};size=65;" parent="1" vertex="1">
          <mxGeometry x="708" y="122" width="150" height="1008" as="geometry" />
        </mxCell>
        <mxCell id="MUUZQyDY-iv94zFvs__d-4" value="GoEfficient" style="shape=umlLifeline;perimeter=lifelinePerimeter;whiteSpace=wrap;container=1;dropTarget=0;collapsible=0;recursiveResize=0;outlineConnect=0;portConstraint=eastwest;newEdgeStyle={&quot;edgeStyle&quot;:&quot;elbowEdgeStyle&quot;,&quot;elbow&quot;:&quot;vertical&quot;,&quot;curved&quot;:0,&quot;rounded&quot;:0};size=65;" parent="1" vertex="1">
          <mxGeometry x="950" y="122" width="150" height="1008" as="geometry" />
        </mxCell>
        <mxCell id="MUUZQyDY-iv94zFvs__d-15" value="" style="endArrow=classic;html=1;rounded=0;" parent="1" edge="1">
          <mxGeometry width="50" height="50" relative="1" as="geometry">
            <mxPoint x="582.5" y="460" as="sourcePoint" />
            <mxPoint x="190" y="460" as="targetPoint" />
          </mxGeometry>
        </mxCell>
        <mxCell id="MUUZQyDY-iv94zFvs__d-16" value="TaskIndication (Post)" style="edgeLabel;html=1;align=center;verticalAlign=middle;resizable=0;points=[];" parent="MUUZQyDY-iv94zFvs__d-15" vertex="1" connectable="0">
          <mxGeometry x="-0.401" y="-1" relative="1" as="geometry">
            <mxPoint x="-84" as="offset" />
          </mxGeometry>
        </mxCell>
        <mxCell id="MUUZQyDY-iv94zFvs__d-17" value="TaskIndicationResponse" style="verticalAlign=middle;endArrow=block;edgeStyle=elbowEdgeStyle;elbow=horizontal;curved=0;rounded=0;dashed=1;dashPattern=2 3;" parent="1" edge="1">
          <mxGeometry relative="1" as="geometry">
            <Array as="points">
              <mxPoint x="400.5" y="500" />
            </Array>
            <mxPoint x="189.5" y="500" as="sourcePoint" />
            <mxPoint x="582.5" y="500" as="targetPoint" />
          </mxGeometry>
        </mxCell>
        <mxCell id="MUUZQyDY-iv94zFvs__d-18" value="" style="endArrow=classic;html=1;rounded=0;" parent="1" edge="1">
          <mxGeometry width="50" height="50" relative="1" as="geometry">
            <mxPoint x="190" y="750" as="sourcePoint" />
            <mxPoint x="583" y="750" as="targetPoint" />
            <Array as="points">
              <mxPoint x="390.5" y="750" />
            </Array>
          </mxGeometry>
        </mxCell>
        <mxCell id="MUUZQyDY-iv94zFvs__d-19" value="TaskFetch (Get)" style="edgeLabel;html=1;align=center;verticalAlign=middle;resizable=0;points=[];" parent="MUUZQyDY-iv94zFvs__d-18" vertex="1" connectable="0">
          <mxGeometry x="-0.401" y="-1" relative="1" as="geometry">
            <mxPoint x="63" as="offset" />
          </mxGeometry>
        </mxCell>
        <mxCell id="MUUZQyDY-iv94zFvs__d-20" value="TaskFetchResponse" style="verticalAlign=middle;endArrow=block;edgeStyle=elbowEdgeStyle;elbow=horizontal;curved=0;rounded=0;dashed=1;dashPattern=2 3;" parent="1" edge="1">
          <mxGeometry relative="1" as="geometry">
            <Array as="points">
              <mxPoint x="401" y="860" />
            </Array>
            <mxPoint x="582.5" y="859.9999999999999" as="sourcePoint" />
            <mxPoint x="189.66666666666674" y="859.9999999999999" as="targetPoint" />
          </mxGeometry>
        </mxCell>
        <mxCell id="MUUZQyDY-iv94zFvs__d-21" value="" style="endArrow=classic;html=1;rounded=0;" parent="1" target="MUUZQyDY-iv94zFvs__d-2" edge="1">
          <mxGeometry width="50" height="50" relative="1" as="geometry">
            <mxPoint x="582.5" y="910" as="sourcePoint" />
            <mxPoint x="189.5" y="910" as="targetPoint" />
            <Array as="points">
              <mxPoint x="190" y="910" />
            </Array>
          </mxGeometry>
        </mxCell>
        <mxCell id="MUUZQyDY-iv94zFvs__d-22" value="TaskSync (Put)" style="edgeLabel;html=1;align=center;verticalAlign=middle;resizable=0;points=[];" parent="MUUZQyDY-iv94zFvs__d-21" vertex="1" connectable="0">
          <mxGeometry x="-0.401" y="-1" relative="1" as="geometry">
            <mxPoint x="33" as="offset" />
          </mxGeometry>
        </mxCell>
        <mxCell id="MUUZQyDY-iv94zFvs__d-23" value="TaskSyncResponse" style="verticalAlign=middle;endArrow=block;edgeStyle=elbowEdgeStyle;elbow=horizontal;curved=0;rounded=0;dashed=1;dashPattern=2 3;" parent="1" edge="1">
          <mxGeometry relative="1" as="geometry">
            <Array as="points">
              <mxPoint x="401.5" y="952" />
            </Array>
            <mxPoint x="583" y="952" as="sourcePoint" />
            <mxPoint x="190" y="952" as="targetPoint" />
          </mxGeometry>
        </mxCell>
        <mxCell id="tjjqqc-NLRuQgFL5_lIf-2" value="PowerShell script" style="text;html=1;align=center;verticalAlign=middle;resizable=0;points=[];autosize=1;strokeColor=none;fillColor=none;" parent="1" vertex="1">
          <mxGeometry x="630" y="210" width="114" height="30" as="geometry" />
        </mxCell>
        <mxCell id="tjjqqc-NLRuQgFL5_lIf-4" value="" style="endArrow=classic;html=1;rounded=0;exitX=0.496;exitY=0.098;exitDx=0;exitDy=0;exitPerimeter=0;" parent="1" edge="1">
          <mxGeometry width="50" height="50" relative="1" as="geometry">
            <mxPoint x="782.4000000000001" y="210.004" as="sourcePoint" />
            <mxPoint x="582.5" y="210.004" as="targetPoint" />
          </mxGeometry>
        </mxCell>
        <mxCell id="tjjqqc-NLRuQgFL5_lIf-5" value="Scheduler for TaskIndication" style="edgeLabel;html=1;align=center;verticalAlign=middle;resizable=0;points=[];" parent="tjjqqc-NLRuQgFL5_lIf-4" vertex="1" connectable="0">
          <mxGeometry x="0.3287" y="1" relative="1" as="geometry">
            <mxPoint x="41" as="offset" />
          </mxGeometry>
        </mxCell>
        <mxCell id="tjjqqc-NLRuQgFL5_lIf-9" value="Configuration exists in webconfig in LIP Broker having templateid and status in GoEfficient in CIF WMS-AFT-Status. Tempalte id and status are 1:1" style="rounded=0;whiteSpace=wrap;html=1;" parent="1" vertex="1">
          <mxGeometry x="1070" y="200" width="190" height="90" as="geometry" />
        </mxCell>
        <mxCell id="LWFRJzvwiUYScmB5IrcK-1" value="GoEfficient_Request07aCloseTask_REQ7a" style="verticalAlign=middle;endArrow=block;edgeStyle=elbowEdgeStyle;elbow=horizontal;curved=0;rounded=0;" parent="1" edge="1">
          <mxGeometry relative="1" as="geometry">
            <Array as="points">
              <mxPoint x="800.5" y="911" />
            </Array>
            <mxPoint x="590" y="911" as="sourcePoint" />
            <mxPoint x="1021.5" y="911" as="targetPoint" />
          </mxGeometry>
        </mxCell>
        <mxCell id="LWFRJzvwiUYScmB5IrcK-2" value="GoEfficient_Request07aCloseTask_RES7a" style="verticalAlign=middle;endArrow=block;edgeStyle=elbowEdgeStyle;elbow=vertical;curved=0;rounded=0;dashed=1;dashPattern=2 3;" parent="1" edge="1">
          <mxGeometry relative="1" as="geometry">
            <Array as="points">
              <mxPoint x="804" y="951" />
            </Array>
            <mxPoint x="1025" y="951" as="sourcePoint" />
            <mxPoint x="593.5" y="951" as="targetPoint" />
          </mxGeometry>
        </mxCell>
        <mxCell id="LWFRJzvwiUYScmB5IrcK-3" value="GoEfficient_Request07_ReadOpenTasksByTemplateID_REQ7" style="verticalAlign=middle;endArrow=block;edgeStyle=elbowEdgeStyle;elbow=horizontal;curved=0;rounded=0;" parent="1" target="MUUZQyDY-iv94zFvs__d-4" edge="1">
          <mxGeometry relative="1" as="geometry">
            <Array as="points">
              <mxPoint x="790.5" y="270" />
            </Array>
            <mxPoint x="580" y="270" as="sourcePoint" />
            <mxPoint x="1008.5" y="270" as="targetPoint" />
            <mxPoint as="offset" />
          </mxGeometry>
        </mxCell>
        <mxCell id="LWFRJzvwiUYScmB5IrcK-4" value="GoEfficient_Request07_ReadOpenTasksByTemplateID_RES7" style="verticalAlign=middle;endArrow=block;edgeStyle=elbowEdgeStyle;elbow=vertical;curved=0;rounded=0;dashed=1;dashPattern=2 3;" parent="1" source="MUUZQyDY-iv94zFvs__d-4" edge="1">
          <mxGeometry x="0.09" relative="1" as="geometry">
            <Array as="points">
              <mxPoint x="794.5" y="300" />
            </Array>
            <mxPoint x="1013" y="300" as="sourcePoint" />
            <mxPoint x="584" y="300" as="targetPoint" />
            <mxPoint as="offset" />
          </mxGeometry>
        </mxCell>
        <mxCell id="8DDibM1pzrjGW29zXVho-1" value="GoEfficient_InstantiatedAttacmentsRequest_REQ04a" style="verticalAlign=middle;endArrow=block;edgeStyle=elbowEdgeStyle;elbow=vertical;curved=0;rounded=0;" parent="1" target="MUUZQyDY-iv94zFvs__d-4" edge="1">
          <mxGeometry relative="1" as="geometry">
            <Array as="points">
              <mxPoint x="793.5" y="340" />
            </Array>
            <mxPoint x="583" y="340" as="sourcePoint" />
            <mxPoint x="983" y="340" as="targetPoint" />
          </mxGeometry>
        </mxCell>
        <mxCell id="8DDibM1pzrjGW29zXVho-2" value="GoEfficient_InstantiatedAttacmentsResponse_RES04a" style="verticalAlign=middle;endArrow=block;edgeStyle=elbowEdgeStyle;elbow=vertical;curved=0;rounded=0;dashed=1;dashPattern=2 3;" parent="1" source="MUUZQyDY-iv94zFvs__d-4" edge="1">
          <mxGeometry relative="1" as="geometry">
            <Array as="points">
              <mxPoint x="793.5" y="370" />
            </Array>
            <mxPoint x="983" y="370" as="sourcePoint" />
            <mxPoint x="583" y="370" as="targetPoint" />
          </mxGeometry>
        </mxCell>
        <mxCell id="8DDibM1pzrjGW29zXVho-3" value="Values for Task Indication will be fetched using 4a" style="text;html=1;strokeColor=none;fillColor=none;align=center;verticalAlign=middle;whiteSpace=wrap;rounded=0;" parent="1" vertex="1">
          <mxGeometry x="1070" y="320" width="180" height="30" as="geometry" />
        </mxCell>
        <mxCell id="H2WTIlCouMoJD9er5-2i-1" value="GoEfficient_UpdateInstantiatedAttachmentsRequest_REQ05" style="verticalAlign=middle;endArrow=block;edgeStyle=elbowEdgeStyle;elbow=horizontal;curved=0;rounded=0;" parent="1" target="MUUZQyDY-iv94zFvs__d-4" edge="1">
          <mxGeometry x="0.436" relative="1" as="geometry">
            <Array as="points">
              <mxPoint x="793.5" y="410" />
            </Array>
            <mxPoint x="583" y="410" as="sourcePoint" />
            <mxPoint x="983" y="410" as="targetPoint" />
            <mxPoint as="offset" />
          </mxGeometry>
        </mxCell>
        <mxCell id="H2WTIlCouMoJD9er5-2i-2" value="GoEfficient_UpdateInstantiatedAttachmentsResponse_RES05" style="verticalAlign=middle;endArrow=block;edgeStyle=elbowEdgeStyle;elbow=vertical;curved=0;rounded=0;dashed=1;dashPattern=2 3;" parent="1" source="MUUZQyDY-iv94zFvs__d-4" target="MUUZQyDY-iv94zFvs__d-2" edge="1">
          <mxGeometry x="0.0012" relative="1" as="geometry">
            <Array as="points">
              <mxPoint x="793.5" y="433" />
            </Array>
            <mxPoint x="983" y="433" as="sourcePoint" />
            <mxPoint x="613" y="433" as="targetPoint" />
            <mxPoint as="offset" />
          </mxGeometry>
        </mxCell>
        <mxCell id="H2WTIlCouMoJD9er5-2i-4" value="Update the status field CIFWMS-AFT-Status using 5 in &lt;br&gt;GoEfficient based on WebConfig mapping" style="text;html=1;align=center;verticalAlign=middle;resizable=0;points=[];autosize=1;strokeColor=none;fillColor=none;" parent="1" vertex="1">
          <mxGeometry x="1025" y="395" width="310" height="40" as="geometry" />
        </mxCell>
        <mxCell id="H2WTIlCouMoJD9er5-2i-5" value="GoEfficient_InstantiatedAttacmentsRequest_REQ04a" style="verticalAlign=middle;endArrow=block;edgeStyle=elbowEdgeStyle;elbow=vertical;curved=0;rounded=0;" parent="1" edge="1">
          <mxGeometry relative="1" as="geometry">
            <Array as="points">
              <mxPoint x="793.5" y="810" />
            </Array>
            <mxPoint x="583" y="810" as="sourcePoint" />
            <mxPoint x="1025" y="810" as="targetPoint" />
          </mxGeometry>
        </mxCell>
        <mxCell id="H2WTIlCouMoJD9er5-2i-6" value="GoEfficient_InstantiatedAttacmentsResponse_RES04a" style="verticalAlign=middle;endArrow=block;edgeStyle=elbowEdgeStyle;elbow=vertical;curved=0;rounded=0;dashed=1;dashPattern=2 3;" parent="1" edge="1">
          <mxGeometry relative="1" as="geometry">
            <Array as="points">
              <mxPoint x="793.5" y="840" />
            </Array>
            <mxPoint x="1025" y="840" as="sourcePoint" />
            <mxPoint x="583" y="840" as="targetPoint" />
          </mxGeometry>
        </mxCell>
        <mxCell id="_Fd7XQCbCW14xdfKKpFs-1" value="" style="curved=1;endArrow=classic;html=1;rounded=0;" parent="1" source="MUUZQyDY-iv94zFvs__d-1" target="MUUZQyDY-iv94zFvs__d-1" edge="1">
          <mxGeometry width="50" height="50" relative="1" as="geometry">
            <mxPoint x="700" y="730" as="sourcePoint" />
            <mxPoint x="750" y="680" as="targetPoint" />
            <Array as="points">
              <mxPoint x="170" y="910" />
              <mxPoint x="140" y="710" />
              <mxPoint x="150" y="670" />
              <mxPoint x="160" y="460" />
            </Array>
          </mxGeometry>
        </mxCell>
        <mxCell id="_Fd7XQCbCW14xdfKKpFs-2" value="Maintain CoRelation" style="text;html=1;strokeColor=none;fillColor=none;align=center;verticalAlign=middle;whiteSpace=wrap;rounded=0;" parent="1" vertex="1">
          <mxGeometry x="120" y="650" width="60" height="30" as="geometry" />
        </mxCell>
      </root>
    </mxGraphModel>
  </diagram>
</mxfile>
